<?xml version="1.0" encoding="utf-8"?><!-- Uploaded to: SVG Repo, www.svgrepo.com, Generator: SVG Repo Mixer Tools -->
<svg width="800px" height="800px" viewBox="0 0 24 24" fill="none" xmlns="http://www.w3.org/2000/svg">
<path d="M14.9007 13.804C14.9007 14.4463 15.1703 14.7674 15.7096 14.7674C16.2733 14.7674 16.7267 14.4589 17.0699 13.8418C17.3885 13.2625 17.5478 12.4943 17.5478 11.5372C17.5478 9.62298 17.0086 8.11806 15.9301 7.02243C14.8517 5.93939 13.4485 5.39787 11.7206 5.39787C9.8701 5.39787 8.36275 6.00236 7.19853 7.21133C6.03431 8.44549 5.45221 10.0449 5.45221 12.0094C5.45221 13.9992 6.02819 15.5923 7.18015 16.7887C8.34436 17.9976 9.84559 18.6021 11.6838 18.6021C13.6201 18.6021 15.2561 18.0858 16.5919 17.0531L17.3272 18.2432C16.6532 18.7847 15.7831 19.2192 14.7169 19.5466C13.7243 19.8489 12.7316 20 11.739 20C9.43505 20 7.56618 19.2507 6.13235 17.7521C4.71078 16.266 4 14.3833 4 12.1039C4 9.82448 4.71078 7.90397 6.13235 6.34239C7.54167 4.78079 9.34927 4 11.5551 4C13.7978 4 15.5931 4.68634 16.9412 6.05903C18.3137 7.4695 19 9.28926 19 11.5183C19 12.8028 18.7059 13.8796 18.1176 14.7485C17.4681 15.7056 16.6471 16.1842 15.6544 16.1842C15.1029 16.1842 14.6311 16.0457 14.239 15.7686C13.7855 15.4664 13.4976 15.0508 13.375 14.5218C12.8971 15.4538 12.076 15.9197 10.9118 15.9197C9.88235 15.9197 9.05515 15.5545 8.43015 14.8241C7.79289 14.1189 7.47427 13.1806 7.47427 12.0094C7.47427 10.8383 7.79289 9.88745 8.43015 9.15702C9.07966 8.4392 9.91912 8.08028 10.9485 8.08028C12.0147 8.08028 12.7929 8.47698 13.2831 9.27037V8.17473H14.9007V13.804ZM11.1691 14.5218C11.7574 14.5218 12.2598 14.2952 12.6765 13.8418C13.0809 13.401 13.2831 12.8532 13.2831 12.1983V11.8205C13.2831 11.1657 13.0809 10.6116 12.6765 10.1582C12.2598 9.70484 11.7574 9.47816 11.1691 9.47816C10.5564 9.47816 10.06 9.71114 9.68015 10.1771C9.30025 10.6431 9.11029 11.2538 9.11029 12.0094C9.11029 12.7776 9.30025 13.3821 9.68015 13.8229C10.06 14.2889 10.5564 14.5218 11.1691 14.5218Z" fill="#1F2328"/>
</svg>