<svg width="262" height="71" viewBox="0 0 262 71" fill="none" xmlns="http://www.w3.org/2000/svg">
<g clip-path="url(#clip0_1_37)">
<path d="M42.216 63.624L0.440002 35.288V28.344L42.216 0.00799561V8.856L8.504 31.592V32.04L42.216 54.776V63.624ZM72.8443 69V6.792H81.5483L82.4443 21.512H82.8283C86.0709 16.4773 90.0816 12.5093 94.8603 9.608C99.6389 6.70666 104.887 5.256 110.604 5.256C112.908 5.256 115.042 5.46933 117.004 5.896C119.052 6.23733 121.015 6.87733 122.892 7.816L120.46 16.904C118.327 16.136 116.492 15.5813 114.956 15.24C113.42 14.8987 111.415 14.728 108.94 14.728C104.247 14.728 99.7243 16.0933 95.3723 18.824C91.1056 21.4693 87.0949 26.0347 83.3403 32.52V69H72.8443ZM170.586 70.536C164.528 70.536 158.853 69.5547 153.562 67.592C148.272 65.6293 143.749 63.368 139.994 60.808L144.858 53.896C148.442 56.456 152.41 58.504 156.762 60.04C161.114 61.576 166.149 62.344 171.866 62.344C177.157 62.344 181.082 61.3627 183.642 59.4C186.288 57.4373 187.61 55.176 187.61 52.616C187.61 51.4213 187.354 50.312 186.842 49.288C186.416 48.264 185.52 47.2827 184.154 46.344C182.874 45.4053 180.954 44.5093 178.394 43.656C175.834 42.8027 172.421 41.9493 168.154 41.096C160.048 39.3893 153.946 37.0853 149.85 34.184C145.84 31.2827 143.834 27.528 143.834 22.92C143.834 17.8853 146.01 13.704 150.362 10.376C154.714 6.96266 161.157 5.256 169.69 5.256C174.469 5.256 179.077 6.06666 183.514 7.688C187.952 9.224 191.706 11.0587 194.778 13.192L189.658 19.976C186.842 17.928 183.642 16.3493 180.058 15.24C176.474 14.0453 172.72 13.448 168.794 13.448C165.21 13.448 162.352 13.8747 160.218 14.728C158.17 15.496 156.677 16.5627 155.738 17.928C154.885 19.2933 154.458 20.7867 154.458 22.408C154.458 25.0533 155.866 27.144 158.682 28.68C161.584 30.1307 166.192 31.496 172.506 32.776C179.418 34.2267 184.709 35.848 188.378 37.64C192.133 39.432 194.693 41.48 196.058 43.784C197.509 46.088 198.234 48.8187 198.234 51.976C198.234 55.3893 197.168 58.504 195.034 61.32C192.901 64.0507 189.786 66.2693 185.69 67.976C181.594 69.6827 176.56 70.536 170.586 70.536ZM219.64 63.624V54.776L253.352 32.04V31.592L219.64 8.856V0.00799561L261.416 28.344V35.288L219.64 63.624Z" fill="white"/>
<path d="M42.216 63.624L41.6547 64.4516L43.216 65.5106V63.624H42.216ZM0.440002 35.288H-0.559998V35.818L-0.121337 36.1156L0.440002 35.288ZM0.440002 28.344L-0.121337 27.5164L-0.559998 27.814V28.344H0.440002ZM42.216 0.00799739H43.216V-1.87862L41.6547 -0.819588L42.216 0.00799739ZM42.216 8.856L42.7751 9.68507L43.216 9.38775V8.856H42.216ZM8.504 31.592L7.94486 30.7629L7.504 31.0602V31.592H8.504ZM8.504 32.04H7.504V32.5717L7.94486 32.8691L8.504 32.04ZM42.216 54.776H43.216V54.2443L42.7751 53.9469L42.216 54.776ZM42.7773 62.7964L1.00134 34.4604L-0.121337 36.1156L41.6547 64.4516L42.7773 62.7964ZM1.44 35.288V28.344H-0.559998V35.288H1.44ZM1.00134 29.1716L42.7773 0.835584L41.6547 -0.819588L-0.121337 27.5164L1.00134 29.1716ZM41.216 0.00799739V8.856H43.216V0.00799739H41.216ZM41.6569 8.02693L7.94486 30.7629L9.06314 32.4211L42.7751 9.68507L41.6569 8.02693ZM7.504 31.592V32.04H9.504V31.592H7.504ZM7.94486 32.8691L41.6569 55.6051L42.7751 53.9469L9.06314 31.2109L7.94486 32.8691ZM41.216 54.776V63.624H43.216V54.776H41.216ZM72.8443 69H71.8443V70H72.8443V69ZM72.8443 6.792V5.792H71.8443V6.792H72.8443ZM81.5483 6.792L82.5464 6.73124L82.4892 5.792H81.5483V6.792ZM82.4443 21.512L81.4461 21.5728L81.5033 22.512H82.4443V21.512ZM82.8283 21.512V22.512H83.3736L83.669 22.0535L82.8283 21.512ZM117.004 5.896L116.792 6.87317L116.816 6.87837L116.84 6.88239L117.004 5.896ZM122.892 7.816L123.858 8.07451L124.069 7.28642L123.339 6.92157L122.892 7.816ZM120.46 16.904L120.122 17.8449L121.145 18.2134L121.426 17.1625L120.46 16.904ZM95.3723 18.824L95.8992 19.6739L95.9037 19.6711L95.3723 18.824ZM83.3403 32.52L82.4748 32.019L82.3403 32.2514V32.52H83.3403ZM83.3403 69V70H84.3403V69H83.3403ZM73.8443 69V6.792H71.8443V69H73.8443ZM72.8443 7.792H81.5483V5.792H72.8443V7.792ZM80.5501 6.85275L81.4461 21.5728L83.4424 21.4512L82.5464 6.73124L80.5501 6.85275ZM82.4443 22.512H82.8283V20.512H82.4443V22.512ZM83.669 22.0535C86.8355 17.137 90.7393 13.2799 95.3792 10.4628L94.3413 8.75321C89.4239 11.7388 85.3063 15.8176 81.9875 20.9705L83.669 22.0535ZM95.3792 10.4628C99.9978 7.65868 105.066 6.256 110.604 6.256V4.256C104.708 4.256 99.2801 5.75465 94.3413 8.75321L95.3792 10.4628ZM110.604 6.256C112.847 6.256 114.908 6.4637 116.792 6.87317L117.217 4.91882C115.175 4.47496 112.969 4.256 110.604 4.256V6.256ZM116.84 6.88239C118.788 7.20716 120.656 7.81584 122.445 8.71042L123.339 6.92157C121.374 5.93882 119.316 5.2675 117.169 4.9096L116.84 6.88239ZM121.926 7.55749L119.494 16.6455L121.426 17.1625L123.858 8.07451L121.926 7.55749ZM120.799 15.9631C118.642 15.1864 116.764 14.6173 115.173 14.2638L114.739 16.2162C116.22 16.5453 118.012 17.0856 120.122 17.8449L120.799 15.9631ZM115.173 14.2638C113.538 13.9003 111.451 13.728 108.94 13.728V15.728C111.378 15.728 113.303 15.897 114.739 16.2162L115.173 14.2638ZM108.94 13.728C104.041 13.728 99.3364 15.1561 94.8408 17.9769L95.9037 19.6711C100.112 17.0305 104.453 15.728 108.94 15.728V13.728ZM94.8453 17.9741C90.3868 20.7384 86.2745 25.4559 82.4748 32.019L84.2057 33.021C87.9154 26.6134 91.8244 22.2003 95.8992 19.6739L94.8453 17.9741ZM82.3403 32.52V69H84.3403V32.52H82.3403ZM83.3403 68H72.8443V70H83.3403V68ZM153.562 67.592L153.214 68.5296L153.562 67.592ZM139.994 60.808L139.176 60.2325L138.592 61.0625L139.431 61.6342L139.994 60.808ZM144.858 53.896L145.439 53.0823L144.62 52.4969L144.04 53.3205L144.858 53.896ZM156.762 60.04L156.429 60.983L156.762 60.04ZM183.642 59.4L183.046 58.5969L183.04 58.6016L183.034 58.6064L183.642 59.4ZM186.842 49.288L185.919 49.6726L185.932 49.7044L185.948 49.7352L186.842 49.288ZM184.154 46.344L183.563 47.1504L183.575 47.1594L183.588 47.168L184.154 46.344ZM178.394 43.656L178.71 42.7073L178.394 43.656ZM168.154 41.096L167.948 42.0746L167.958 42.0766L168.154 41.096ZM149.85 34.184L149.264 34.9943L149.272 35L149.85 34.184ZM150.362 10.376L150.97 11.1704L150.979 11.1628L150.362 10.376ZM183.514 7.688L183.171 8.62726L183.179 8.63019L183.187 8.63298L183.514 7.688ZM194.778 13.192L195.576 13.7944L196.203 12.964L195.349 12.3706L194.778 13.192ZM189.658 19.976L189.07 20.7847L189.865 21.3626L190.456 20.5784L189.658 19.976ZM180.058 15.24L179.742 16.1887L179.752 16.1921L179.763 16.1953L180.058 15.24ZM160.218 14.728L160.569 15.6643L160.58 15.6605L160.59 15.6565L160.218 14.728ZM155.738 17.928L154.914 17.3615L154.902 17.3795L154.89 17.398L155.738 17.928ZM158.682 28.68L158.203 29.5579L158.219 29.5664L158.235 29.5744L158.682 28.68ZM172.506 32.776L172.712 31.7973L172.705 31.7959L172.506 32.776ZM188.378 37.64L187.939 38.5386L187.948 38.5425L188.378 37.64ZM196.058 43.784L195.198 44.2938L195.205 44.3054L195.212 44.3168L196.058 43.784ZM195.034 61.32L195.822 61.9356L195.827 61.9298L195.831 61.9239L195.034 61.32ZM185.69 67.976L186.075 68.8991L185.69 67.976ZM170.586 69.536C164.638 69.536 159.081 68.5729 153.91 66.6544L153.214 68.5296C158.624 70.5365 164.418 71.536 170.586 71.536V69.536ZM153.91 66.6544C148.678 64.7135 144.231 62.4866 140.558 59.9818L139.431 61.6342C143.266 64.2494 147.865 66.5452 153.214 68.5296L153.91 66.6544ZM140.812 61.3835L145.676 54.4715L144.04 53.3205L139.176 60.2325L140.812 61.3835ZM144.277 54.7097C147.941 57.3268 151.993 59.4173 156.429 60.983L157.095 59.097C152.827 57.5907 148.944 55.5852 145.439 53.0823L144.277 54.7097ZM156.429 60.983C160.91 62.5645 166.062 63.344 171.866 63.344V61.344C166.236 61.344 161.318 60.5875 157.095 59.097L156.429 60.983ZM171.866 63.344C177.248 63.344 181.436 62.3518 184.251 60.1936L183.034 58.6064C180.729 60.3735 177.066 61.344 171.866 61.344V63.344ZM184.238 60.2031C187.057 58.1113 188.61 55.5807 188.61 52.616H186.61C186.61 54.7713 185.518 56.7634 183.046 58.5969L184.238 60.2031ZM188.61 52.616C188.61 51.273 188.321 50.0097 187.737 48.8408L185.948 49.7352C186.387 50.6143 186.61 51.5696 186.61 52.616H188.61ZM187.765 48.9034C187.237 47.6342 186.171 46.5173 184.721 45.52L183.588 47.168C184.868 48.0481 185.595 48.8938 185.919 49.6726L187.765 48.9034ZM184.746 45.5376C183.343 44.5093 181.31 43.5739 178.71 42.7073L178.078 44.6047C180.598 45.4447 182.405 46.3014 183.563 47.1504L184.746 45.5376ZM178.71 42.7073C176.095 41.8354 172.636 40.9726 168.35 40.1154L167.958 42.0766C172.206 42.9261 175.574 43.7699 178.078 44.6047L178.71 42.7073ZM168.36 40.1174C160.311 38.423 154.363 36.1552 150.428 33.368L149.272 35C153.529 38.0155 159.784 40.3557 167.948 42.0745L168.36 40.1174ZM150.436 33.3738C146.663 30.6442 144.834 27.1803 144.834 22.92H142.834C142.834 27.8757 145.016 31.9212 149.264 34.9942L150.436 33.3738ZM144.834 22.92C144.834 18.2272 146.84 14.3284 150.97 11.1704L149.755 9.58164C145.181 13.0796 142.834 17.5435 142.834 22.92H144.834ZM150.979 11.1628C155.082 7.9448 161.266 6.256 169.69 6.256V4.256C161.048 4.256 154.346 5.98052 149.745 9.58914L150.979 11.1628ZM169.69 6.256C174.353 6.256 178.845 7.04658 183.171 8.62726L183.857 6.74873C179.309 5.08675 174.585 4.256 169.69 4.256V6.256ZM183.187 8.63298C187.559 10.1463 191.227 11.9435 194.208 14.0134L195.349 12.3706C192.185 10.1739 188.344 8.30165 183.841 6.74301L183.187 8.63298ZM193.98 12.5896L188.86 19.3736L190.456 20.5784L195.576 13.7944L193.98 12.5896ZM190.246 19.1673C187.335 17.0499 184.035 15.424 180.354 14.2847L179.763 16.1953C183.25 17.2747 186.35 18.8061 189.07 20.7847L190.246 19.1673ZM180.374 14.2913C176.685 13.0613 172.823 12.448 168.794 12.448V14.448C172.616 14.448 176.264 15.0293 179.742 16.1887L180.374 14.2913ZM168.794 12.448C165.146 12.448 162.146 12.88 159.847 13.7995L160.59 15.6565C162.558 14.8693 165.274 14.448 168.794 14.448V12.448ZM159.867 13.7917C157.688 14.6088 156.001 15.7808 154.914 17.3615L156.562 18.4945C157.353 17.3445 158.652 16.3832 160.569 15.6643L159.867 13.7917ZM154.89 17.398C153.937 18.9234 153.458 20.6006 153.458 22.408H155.458C155.458 20.9727 155.833 19.6632 156.586 18.458L154.89 17.398ZM153.458 22.408C153.458 25.5033 155.147 27.891 158.203 29.5579L159.161 27.8021C156.585 26.397 155.458 24.6033 155.458 22.408H153.458ZM158.235 29.5744C161.259 31.0864 165.974 32.4722 172.308 33.7561L172.705 31.7959C166.409 30.5198 161.908 29.1749 159.129 27.7856L158.235 29.5744ZM172.301 33.7547C179.182 35.1988 184.379 36.7998 187.939 38.5386L188.817 36.7414C185.039 34.8962 179.655 33.2546 172.712 31.7973L172.301 33.7547ZM187.948 38.5425C191.615 40.2928 193.975 42.2307 195.198 44.2938L196.919 43.2742C195.41 40.7293 192.651 38.5712 188.809 36.7375L187.948 38.5425ZM195.212 44.3168C196.547 46.4371 197.234 48.9765 197.234 51.976H199.234C199.234 48.6608 198.471 45.7389 196.904 43.2512L195.212 44.3168ZM197.234 51.976C197.234 55.1632 196.244 58.0674 194.237 60.7161L195.831 61.9239C198.091 58.9406 199.234 55.6154 199.234 51.976H197.234ZM194.246 60.7044C192.244 63.2667 189.287 65.3942 185.306 67.0529L186.075 68.8991C190.286 67.1444 193.557 64.8346 195.822 61.9356L194.246 60.7044ZM185.306 67.0529C181.366 68.6945 176.471 69.536 170.586 69.536V71.536C176.649 71.536 181.823 70.6708 186.075 68.8991L185.306 67.0529ZM219.64 63.624H218.64V65.5106L220.202 64.4516L219.64 63.624ZM219.64 54.776L219.081 53.9469L218.64 54.2443V54.776H219.64ZM253.352 32.04L253.911 32.8691L254.352 32.5717V32.04H253.352ZM253.352 31.592H254.352V31.0602L253.911 30.7629L253.352 31.592ZM219.64 8.856H218.64V9.38775L219.081 9.68507L219.64 8.856ZM219.64 0.00799739L220.202 -0.819588L218.64 -1.87862V0.00799739H219.64ZM261.416 28.344H262.416V27.814L261.978 27.5164L261.416 28.344ZM261.416 35.288L261.978 36.1156L262.416 35.818V35.288H261.416ZM220.64 63.624V54.776H218.64V63.624H220.64ZM220.199 55.6051L253.911 32.8691L252.793 31.2109L219.081 53.9469L220.199 55.6051ZM254.352 32.04V31.592H252.352V32.04H254.352ZM253.911 30.7629L220.199 8.02693L219.081 9.68507L252.793 32.4211L253.911 30.7629ZM220.64 8.856V0.00799739H218.64V8.856H220.64ZM219.079 0.835584L260.855 29.1716L261.978 27.5164L220.202 -0.819588L219.079 0.835584ZM260.416 28.344V35.288H262.416V28.344H260.416ZM260.855 34.4604L219.079 62.7964L220.202 64.4516L261.978 36.1156L260.855 34.4604Z" fill="black"/>
</g>
<defs>
<clipPath id="clip0_1_37">
<rect width="262" height="71" fill="white"/>
</clipPath>
</defs>
</svg>
