<svg width="263" height="73" viewBox="0 0 263 73" fill="none" xmlns="http://www.w3.org/2000/svg">
<g clip-path="url(#clip0_2_41)">
<path d="M44.224 67.528L0.991997 39.528V28.104L44.224 0.104004V15L14.544 33.592V34.04L44.224 52.632V67.528ZM70.0043 71V7.51201H85.3643L86.9003 21.336H87.2843C90.4416 16.1307 94.2389 12.2907 98.6763 9.81601C103.199 7.25601 107.978 5.97601 113.012 5.97601C115.828 5.97601 118.09 6.18934 119.796 6.61601C121.588 7.04267 123.423 7.68267 125.3 8.53601L121.46 24.28C119.498 23.6827 117.706 23.256 116.084 23C114.548 22.6587 112.586 22.488 110.196 22.488C106.271 22.488 102.388 23.64 98.5483 25.944C94.7936 28.248 91.5509 32.2587 88.8203 37.976V71H70.0043ZM169.794 72.536C164.162 72.536 158.573 71.5973 153.026 69.72C147.48 67.7573 142.701 65.4533 138.69 62.808L146.754 51.032C150.594 53.5067 154.648 55.384 158.914 56.664C163.266 57.944 167.746 58.584 172.354 58.584C175.853 58.584 178.413 58.072 180.034 57.048C181.656 55.9387 182.466 54.6587 182.466 53.208C182.466 52.2693 182.21 51.5013 181.698 50.904C181.272 50.2213 180.461 49.624 179.266 49.112C178.157 48.5147 176.578 47.96 174.53 47.448C172.568 46.936 170.008 46.3387 166.85 45.656C158.232 43.7787 152.045 41.2187 148.29 37.976C144.536 34.7333 142.658 30.68 142.658 25.816C142.658 19.8427 145.261 15.064 150.466 11.48C155.672 7.81067 162.797 5.97601 171.842 5.97601C177.56 5.97601 182.722 6.91467 187.33 8.79201C192.024 10.584 196.034 12.5467 199.362 14.68L190.914 25.944C187.757 23.9813 184.386 22.488 180.802 21.464C177.218 20.44 173.677 19.928 170.178 19.928C168.216 19.928 166.594 20.1413 165.314 20.568C164.034 20.9093 163.053 21.5067 162.37 22.36C161.688 23.128 161.346 23.9813 161.346 24.92C161.346 26.6267 162.456 27.9067 164.674 28.76C166.893 29.528 170.69 30.5093 176.066 31.704C182.552 33.1547 187.629 34.8187 191.298 36.696C194.968 38.5733 197.485 40.7493 198.85 43.224C200.301 45.6133 201.026 48.5573 201.026 52.056C201.026 55.896 199.832 59.352 197.442 62.424C195.138 65.496 191.64 67.9707 186.946 69.848C182.338 71.64 176.621 72.536 169.794 72.536ZM219.632 67.528V52.632L249.312 34.04V33.592L219.632 15V0.104004L262.864 28.104V39.528L219.632 67.528Z" fill="white"/>
<path d="M44.224 67.528L43.6804 68.3673L45.224 69.3671V67.528H44.224ZM0.991996 39.528H-0.00800323V40.0717L0.448385 40.3673L0.991996 39.528ZM0.991996 28.104L0.448385 27.2647L-0.00800323 27.5602V28.104H0.991996ZM44.224 0.103996H45.224V-1.73509L43.6804 -0.735341L44.224 0.103996ZM44.224 15L44.7549 15.8475L45.224 15.5536V15H44.224ZM14.544 33.592L14.0131 32.7445L13.544 33.0384V33.592H14.544ZM14.544 34.04H13.544V34.5936L14.0131 34.8875L14.544 34.04ZM44.224 52.632H45.224V52.0784L44.7549 51.7845L44.224 52.632ZM44.7676 66.6887L1.53561 38.6887L0.448385 40.3673L43.6804 68.3673L44.7676 66.6887ZM1.992 39.528V28.104H-0.00800323V39.528H1.992ZM1.53561 28.9433L44.7676 0.943333L43.6804 -0.735341L0.448385 27.2647L1.53561 28.9433ZM43.224 0.103996V15H45.224V0.103996H43.224ZM43.6931 14.1525L14.0131 32.7445L15.0749 34.4395L44.7549 15.8475L43.6931 14.1525ZM13.544 33.592V34.04H15.544V33.592H13.544ZM14.0131 34.8875L43.6931 53.4795L44.7549 51.7845L15.0749 33.1925L14.0131 34.8875ZM43.224 52.632V67.528H45.224V52.632H43.224ZM70.0043 71H69.0043V72H70.0043V71ZM70.0043 7.512V6.512H69.0043V7.512H70.0043ZM85.3643 7.512L86.3581 7.40157L86.2593 6.512H85.3643V7.512ZM86.9003 21.336L85.9064 21.4464L86.0052 22.336H86.9003V21.336ZM87.2843 21.336V22.336H87.8473L88.1393 21.8546L87.2843 21.336ZM98.6763 9.816L99.1633 10.6894L99.1688 10.6863L98.6763 9.816ZM119.796 6.616L119.554 7.5862L119.565 7.5888L119.796 6.616ZM125.3 8.536L126.272 8.77295L126.468 7.96834L125.714 7.62563L125.3 8.536ZM121.46 24.28L121.169 25.2367L122.181 25.5447L122.432 24.517L121.46 24.28ZM116.084 23L115.867 23.9762L115.898 23.9829L115.928 23.9878L116.084 23ZM98.5483 25.944L98.0337 25.0865L98.0252 25.0917L98.5483 25.944ZM88.8203 37.976L87.9179 37.545L87.8203 37.7494V37.976H88.8203ZM88.8203 71V72H89.8203V71H88.8203ZM71.0043 71V7.512H69.0043V71H71.0043ZM70.0043 8.512H85.3643V6.512H70.0043V8.512ZM84.3704 7.62243L85.9064 21.4464L87.8941 21.2256L86.3581 7.40157L84.3704 7.62243ZM86.9003 22.336H87.2843V20.336H86.9003V22.336ZM88.1393 21.8546C91.2246 16.768 94.9047 13.0644 99.1633 10.6894L98.1892 8.94263C93.5731 11.517 89.6586 15.4933 86.4292 20.8174L88.1393 21.8546ZM99.1688 10.6863C103.546 8.20844 108.156 6.976 113.012 6.976V4.976C107.799 4.976 102.852 6.30356 98.1837 8.94574L99.1688 10.6863ZM113.012 6.976C115.789 6.976 117.959 7.1875 119.554 7.58614L120.039 5.64585C118.22 5.19117 115.867 4.976 113.012 4.976V6.976ZM119.565 7.5888C121.287 7.99892 123.061 8.61655 124.886 9.44636L125.714 7.62563C123.785 6.74878 121.889 6.0864 120.028 5.64319L119.565 7.5888ZM124.329 8.29904L120.489 24.043L122.432 24.517L126.272 8.77295L124.329 8.29904ZM121.751 23.3233C119.755 22.7157 117.917 22.277 116.24 22.0122L115.928 23.9878C117.494 24.235 119.24 24.6496 121.169 25.2367L121.751 23.3233ZM116.301 22.0238C114.667 21.6608 112.625 21.488 110.196 21.488V23.488C112.546 23.488 114.429 23.6566 115.867 23.9762L116.301 22.0238ZM110.196 21.488C106.065 21.488 102.007 22.7027 98.0338 25.0865L99.0627 26.8015C102.77 24.5773 106.477 23.488 110.196 23.488V21.488ZM98.0252 25.0917C94.0489 27.5317 90.6971 31.7261 87.9179 37.545L89.7226 38.407C92.4048 32.7912 95.5383 28.9643 99.0713 26.7963L98.0252 25.0917ZM87.8203 37.976V71H89.8203V37.976H87.8203ZM88.8203 70H70.0043V72H88.8203V70ZM153.026 69.72L152.693 70.6628L152.706 70.6672L153.026 69.72ZM138.69 62.808L137.865 62.243L137.29 63.0825L138.14 63.6428L138.69 62.808ZM146.754 51.032L147.296 50.1914L146.479 49.6647L145.929 50.467L146.754 51.032ZM158.914 56.664L158.627 57.6218L158.632 57.6234L158.914 56.664ZM180.034 57.048L180.568 57.8935L180.584 57.8837L180.599 57.8733L180.034 57.048ZM181.698 50.904L180.85 51.434L180.89 51.4977L180.939 51.5548L181.698 50.904ZM179.266 49.112L178.792 49.9925L178.831 50.0136L178.872 50.0311L179.266 49.112ZM174.53 47.448L174.278 48.4157L174.288 48.4181L174.53 47.448ZM166.85 45.656L166.637 46.6331L166.639 46.6334L166.85 45.656ZM148.29 37.976L148.944 37.2192L148.29 37.976ZM150.466 11.48L151.033 12.3037L151.042 12.2973L150.466 11.48ZM187.33 8.792L186.953 9.71809L186.963 9.72227L186.974 9.72621L187.33 8.792ZM199.362 14.68L200.162 15.28L200.808 14.419L199.902 13.8381L199.362 14.68ZM190.914 25.944L190.386 26.7933L191.164 27.277L191.714 26.544L190.914 25.944ZM180.802 21.464L181.077 20.5025L180.802 21.464ZM165.314 20.568L165.572 21.5342L165.601 21.5264L165.63 21.5167L165.314 20.568ZM162.37 22.36L163.118 23.0244L163.135 23.005L163.151 22.9847L162.37 22.36ZM164.674 28.76L164.315 29.6933L164.331 29.6994L164.347 29.705L164.674 28.76ZM176.066 31.704L176.285 30.7281L176.283 30.7278L176.066 31.704ZM191.298 36.696L190.843 37.5862L191.298 36.696ZM198.85 43.224L197.975 43.7071L197.985 43.7252L197.995 43.743L198.85 43.224ZM197.442 62.424L196.653 61.8101L196.648 61.817L196.642 61.824L197.442 62.424ZM186.946 69.848L187.309 70.78L187.318 70.7765L186.946 69.848ZM169.794 71.536C164.276 71.536 158.794 70.6166 153.347 68.7728L152.706 70.6672C158.351 72.5781 164.049 73.536 169.794 73.536V71.536ZM153.36 68.7773C147.873 66.8359 143.171 64.5653 139.241 61.9732L138.14 63.6428C142.231 66.3414 147.086 68.6788 152.693 70.6627L153.36 68.7773ZM139.515 63.373L147.579 51.597L145.929 50.467L137.865 62.243L139.515 63.373ZM146.213 51.8726C150.129 54.3968 154.268 56.3142 158.627 57.6218L159.202 55.7062C155.027 54.4538 151.059 52.6166 147.296 50.1914L146.213 51.8726ZM158.632 57.6234C163.077 58.9307 167.652 59.584 172.354 59.584V57.584C167.84 57.584 163.455 56.9573 159.196 55.7046L158.632 57.6234ZM172.354 59.584C175.908 59.584 178.703 59.0717 180.568 57.8935L179.5 56.2025C178.123 57.0723 175.798 57.584 172.354 57.584V59.584ZM180.599 57.8733C182.387 56.65 183.466 55.0991 183.466 53.208H181.466C181.466 54.2183 180.924 55.2274 179.47 56.2227L180.599 57.8733ZM183.466 53.208C183.466 52.0789 183.154 51.0654 182.458 50.2532L180.939 51.5548C181.267 51.9373 181.466 52.4597 181.466 53.208H183.466ZM182.546 50.374C181.963 49.4415 180.937 48.74 179.66 48.1929L178.872 50.0311C179.985 50.508 180.58 51.0011 180.85 51.434L182.546 50.374ZM179.74 48.2315C178.525 47.5772 176.855 46.9984 174.773 46.4779L174.288 48.4181C176.301 48.9216 177.789 49.4521 178.792 49.9925L179.74 48.2315ZM174.783 46.4804C172.801 45.9634 170.226 45.3627 167.062 44.6786L166.639 46.6334C169.79 47.3146 172.334 47.9086 174.278 48.4156L174.783 46.4804ZM167.063 44.6789C158.499 42.8134 152.509 40.2979 148.944 37.2192L147.637 38.7328C151.581 42.1395 157.965 44.7439 166.637 46.6331L167.063 44.6789ZM148.944 37.2192C145.404 34.1621 143.658 30.3828 143.658 25.816H141.658C141.658 30.9772 143.667 35.3046 147.637 38.7328L148.944 37.2192ZM143.658 25.816C143.658 20.1937 146.08 15.7139 151.033 12.3036L149.899 10.6563C144.441 14.4141 141.658 19.4916 141.658 25.816H143.658ZM151.042 12.2973C156.022 8.78732 162.92 6.976 171.842 6.976V4.976C162.674 4.976 155.321 6.83401 149.89 10.6627L151.042 12.2973ZM171.842 6.976C177.449 6.976 182.481 7.89629 186.953 9.71809L187.708 7.8659C182.963 5.93304 177.67 4.976 171.842 4.976V6.976ZM186.974 9.72621C191.619 11.5 195.565 13.4339 198.823 15.5219L199.902 13.8381C196.503 11.6595 192.428 9.66799 187.687 7.85778L186.974 9.72621ZM198.562 14.08L190.114 25.344L191.714 26.544L200.162 15.28L198.562 14.08ZM191.442 25.0947C188.206 23.0829 184.75 21.5519 181.077 20.5025L180.528 22.4255C184.023 23.4241 187.308 24.8797 190.386 26.7933L191.442 25.0947ZM181.077 20.5025C177.409 19.4546 173.776 18.928 170.178 18.928V20.928C173.578 20.928 177.027 21.4254 180.528 22.4255L181.077 20.5025ZM170.178 18.928C168.152 18.928 166.415 19.147 164.998 19.6193L165.63 21.5167C166.774 21.1356 168.279 20.928 170.178 20.928V18.928ZM165.057 19.6018C163.615 19.9862 162.432 20.6823 161.589 21.7353L163.151 22.9847C163.674 22.3311 164.454 21.8325 165.572 21.5342L165.057 19.6018ZM161.623 21.6956C160.794 22.6279 160.346 23.7125 160.346 24.92H162.346C162.346 24.2502 162.581 23.628 163.118 23.0244L161.623 21.6956ZM160.346 24.92C160.346 26.0119 160.709 26.9916 161.423 27.8149C162.119 28.6187 163.111 29.2302 164.315 29.6933L165.033 27.8267C164.019 27.4365 163.347 26.9813 162.934 26.5051C162.538 26.0484 162.346 25.5347 162.346 24.92H160.346ZM164.347 29.705C166.625 30.4935 170.472 31.4853 175.849 32.6802L176.283 30.7278C170.908 29.5334 167.161 28.5625 165.001 27.815L164.347 29.705ZM175.848 32.6799C182.295 34.1219 187.28 35.7634 190.843 37.5862L191.754 35.8058C187.978 33.8739 182.809 32.1874 176.285 30.7281L175.848 32.6799ZM190.843 37.5862C194.412 39.4123 196.74 41.47 197.975 43.7071L199.726 42.7409C198.229 40.0286 195.523 37.7344 191.754 35.8058L190.843 37.5862ZM197.995 43.743C199.33 45.9409 200.026 48.6947 200.026 52.056H202.026C202.026 48.42 201.272 45.2857 199.705 42.705L197.995 43.743ZM200.026 52.056C200.026 55.6704 198.908 58.911 196.653 61.8101L198.232 63.0379C200.755 59.793 202.026 56.1216 202.026 52.056H200.026ZM196.642 61.824C194.478 64.7098 191.15 67.0893 186.575 68.9195L187.318 70.7765C192.129 68.8521 195.799 66.2822 198.242 63.024L196.642 61.824ZM186.584 68.916C182.126 70.6495 176.541 71.536 169.794 71.536V73.536C176.701 73.536 182.55 72.6305 187.309 70.78L186.584 68.916ZM219.632 67.528H218.632V69.3671L220.176 68.3673L219.632 67.528ZM219.632 52.632L219.101 51.7845L218.632 52.0784V52.632H219.632ZM249.312 34.04L249.843 34.8875L250.312 34.5936V34.04H249.312ZM249.312 33.592H250.312V33.0384L249.843 32.7445L249.312 33.592ZM219.632 15H218.632V15.5536L219.101 15.8475L219.632 15ZM219.632 0.103996L220.176 -0.735341L218.632 -1.73509V0.103996H219.632ZM262.864 28.104H263.864V27.5602L263.408 27.2647L262.864 28.104ZM262.864 39.528L263.408 40.3673L263.864 40.0717V39.528H262.864ZM220.632 67.528V52.632H218.632V67.528H220.632ZM220.163 53.4795L249.843 34.8875L248.781 33.1925L219.101 51.7845L220.163 53.4795ZM250.312 34.04V33.592H248.312V34.04H250.312ZM249.843 32.7445L220.163 14.1525L219.101 15.8475L248.781 34.4395L249.843 32.7445ZM220.632 15V0.103996H218.632V15H220.632ZM219.089 0.943333L262.321 28.9433L263.408 27.2647L220.176 -0.735341L219.089 0.943333ZM261.864 28.104V39.528H263.864V28.104H261.864ZM262.321 38.6887L219.089 66.6887L220.176 68.3673L263.408 40.3673L262.321 38.6887Z" fill="black"/>
</g>
<defs>
<clipPath id="clip0_2_41">
<rect width="263" height="73" fill="white"/>
</clipPath>
</defs>
</svg>
